<?xml version="1.0" standalone="no"?>
<!DOCTYPE svg PUBLIC "-//W3C//DTD SVG 20010904//EN"
 "http://www.w3.org/TR/2001/REC-SVG-20010904/DTD/svg10.dtd">
<svg version="1.0" xmlns="http://www.w3.org/2000/svg"
 width="64.000000pt" height="64.000000pt" viewBox="0 0 64.000000 64.000000"
 preserveAspectRatio="xMidYMid meet">

<g transform="translate(0.000000,64.000000) scale(0.100000,-0.100000)"
fill="#000000" stroke="none">
<path d="M304 595 c-4 -8 -4 -22 0 -30 3 -8 -6 -35 -19 -60 -14 -24 -25 -57
-25 -74 0 -21 -6 -32 -21 -36 -18 -6 -20 -12 -15 -43 4 -21 9 -63 12 -94 6
-55 5 -58 -20 -68 -20 -7 -26 -16 -26 -39 0 -16 5 -33 10 -36 6 -3 10 -22 10
-41 0 -19 5 -34 10 -34 6 0 10 11 10 24 0 27 21 36 90 36 69 0 90 -9 90 -36 0
-13 5 -24 10 -24 6 0 10 15 10 34 0 19 4 38 10 41 6 3 10 19 10 35 0 24 -5 31
-26 36 -25 7 -26 8 -20 68 3 33 8 77 12 97 5 31 3 36 -20 47 -21 9 -26 19 -26
46 0 20 -9 52 -20 71 -11 20 -18 40 -15 46 4 5 -1 9 -9 9 -9 0 -16 5 -16 10 0
6 5 10 10 10 6 0 10 5 10 10 0 16 -20 12 -26 -5z m26 -85 c0 -5 -4 -10 -10
-10 -5 0 -10 5 -10 10 0 6 5 10 10 10 6 0 10 -4 10 -10z m30 -65 c0 -34 -1
-35 -40 -35 -39 0 -40 1 -40 35 0 34 1 35 40 35 39 0 40 -1 40 -35z m40 -65
c11 -7 12 -15 5 -37 -10 -26 -12 -27 -85 -27 -73 0 -75 1 -85 27 -13 38 3 47
85 47 36 0 72 -4 80 -10z m-12 -132 l3 -48 -70 0 -71 0 0 43 c0 24 3 47 7 51
4 4 34 6 68 4 l60 -3 3 -47z m11 -68 c35 0 45 -16 31 -49 -9 -24 -17 -30 -31
-26 -24 8 -133 8 -157 1 -15 -5 -22 1 -32 24 -7 17 -10 34 -6 37 11 12 90 22
135 17 24 -2 51 -4 60 -4z"/>
<path d="M302 250 c0 -19 2 -27 5 -17 2 9 2 25 0 35 -3 9 -5 1 -5 -18z"/>
<path d="M332 250 c0 -19 2 -27 5 -17 2 9 2 25 0 35 -3 9 -5 1 -5 -18z"/>
<path d="M260 245 c0 -14 5 -25 10 -25 6 0 10 11 10 25 0 14 -4 25 -10 25 -5
0 -10 -11 -10 -25z"/>
<path d="M362 240 c0 -19 2 -27 5 -17 2 9 2 25 0 35 -3 9 -5 1 -5 -18z"/>
</g>
</svg>
